<?xml version="1.0" encoding="UTF-8" standalone="no"?>
<svg
   viewBox="0 0 445.73438 172.80388"
   version="1.1"
   xml:space="preserve"
   style="clip-rule:evenodd;fill-rule:evenodd;stroke-linejoin:round;stroke-miterlimit:2"
   id="svg4"
   sodipodi:docname="splash.svg"
   inkscape:version="1.3.2 (091e20e, 2023-11-25, custom)"
   xmlns:inkscape="http://www.inkscape.org/namespaces/inkscape"
   xmlns:sodipodi="http://sodipodi.sourceforge.net/DTD/sodipodi-0.dtd"
   xmlns="http://www.w3.org/2000/svg"
   xmlns:svg="http://www.w3.org/2000/svg"><sodipodi:namedview
   id="namedview4"
   pagecolor="#ffffff"
   bordercolor="#000000"
   borderopacity="0.25"
   inkscape:showpageshadow="2"
   inkscape:pageopacity="0.0"
   inkscape:pagecheckerboard="0"
   inkscape:deskcolor="#d1d1d1"
   inkscape:zoom="1.2467106"
   inkscape:cx="232.61212"
   inkscape:cy="196.91819"
   inkscape:window-width="2560"
   inkscape:window-height="1411"
   inkscape:window-x="-9"
   inkscape:window-y="-9"
   inkscape:window-maximized="1"
   inkscape:current-layer="svg4" /><defs
   id="defs4" />
    
    
    
    
<g
   id="g1"
   transform="matrix(1.1478226,0,0,1.0766223,-40.423986,-239.26367)"
   style="fill:#8d5fd3;fill-opacity:1;stroke:none;stroke-opacity:1"><g
     id="barcode1"
     style="fill:#8d5fd3;fill-opacity:1;stroke:none;stroke-opacity:1"
     transform="matrix(1.8906555,0,0,1.8906555,154.58447,296.94988)"><rect
       x="0"
       y="0"
       id="barcode1_bar1"
       width="1"
       height="30"
       style="fill:#8d5fd3;fill-opacity:1;stroke:none;stroke-opacity:1" /><rect
       x="3"
       y="0"
       id="barcode1_bar3"
       width="1"
       height="30"
       style="fill:#8d5fd3;fill-opacity:1;stroke:none;stroke-opacity:1" /><rect
       x="5"
       y="0"
       id="barcode1_bar5"
       width="2"
       height="30"
       style="fill:#8d5fd3;fill-opacity:1;stroke:none;stroke-opacity:1" /><rect
       x="8"
       y="0"
       id="barcode1_bar7"
       width="2"
       height="30"
       style="fill:#8d5fd3;fill-opacity:1;stroke:none;stroke-opacity:1" /><rect
       x="11"
       y="0"
       id="barcode1_bar9"
       width="1"
       height="30"
       style="fill:#8d5fd3;fill-opacity:1;stroke:none;stroke-opacity:1" /><rect
       x="13"
       y="0"
       id="barcode1_bar11"
       width="2"
       height="30"
       style="fill:#8d5fd3;fill-opacity:1;stroke:none;stroke-opacity:1" /><rect
       x="16"
       y="0"
       id="barcode1_bar13"
       width="2"
       height="30"
       style="fill:#8d5fd3;fill-opacity:1;stroke:none;stroke-opacity:1" /><rect
       x="20"
       y="0"
       id="barcode1_bar15"
       width="1"
       height="30"
       style="fill:#8d5fd3;fill-opacity:1;stroke:none;stroke-opacity:1" /><rect
       x="22"
       y="0"
       id="barcode1_bar17"
       width="1"
       height="30"
       style="fill:#8d5fd3;fill-opacity:1;stroke:none;stroke-opacity:1" /><rect
       x="24"
       y="0"
       id="barcode1_bar19"
       width="1"
       height="30"
       style="fill:#8d5fd3;fill-opacity:1;stroke:none;stroke-opacity:1" /><rect
       x="26"
       y="0"
       id="barcode1_bar21"
       width="2"
       height="30"
       style="fill:#8d5fd3;fill-opacity:1;stroke:none;stroke-opacity:1" /><rect
       x="29"
       y="0"
       id="barcode1_bar23"
       width="1"
       height="30"
       style="fill:#8d5fd3;fill-opacity:1;stroke:none;stroke-opacity:1" /><rect
       x="32"
       y="0"
       id="barcode1_bar25"
       width="2"
       height="30"
       style="fill:#8d5fd3;fill-opacity:1;stroke:none;stroke-opacity:1" /><rect
       x="35"
       y="0"
       id="barcode1_bar27"
       width="1"
       height="30"
       style="fill:#8d5fd3;fill-opacity:1;stroke:none;stroke-opacity:1" /><rect
       x="37"
       y="0"
       id="barcode1_bar29"
       width="1"
       height="30"
       style="fill:#8d5fd3;fill-opacity:1;stroke:none;stroke-opacity:1" /><rect
       x="39"
       y="0"
       id="barcode1_bar31"
       width="1"
       height="30"
       style="fill:#8d5fd3;fill-opacity:1;stroke:none;stroke-opacity:1" /><rect
       x="41"
       y="0"
       id="barcode1_bar33"
       width="1"
       height="30"
       style="fill:#8d5fd3;fill-opacity:1;stroke:none;stroke-opacity:1" /><rect
       x="44"
       y="0"
       id="barcode1_bar35"
       width="1"
       height="30"
       style="fill:#8d5fd3;fill-opacity:1;stroke:none;stroke-opacity:1" /><rect
       x="46"
       y="0"
       id="barcode1_bar37"
       width="2"
       height="30"
       style="fill:#8d5fd3;fill-opacity:1;stroke:none;stroke-opacity:1" /><rect
       x="49"
       y="0"
       id="barcode1_bar39"
       width="2"
       height="30"
       style="fill:#8d5fd3;fill-opacity:1;stroke:none;stroke-opacity:1" /><rect
       x="52"
       y="0"
       id="barcode1_bar41"
       width="1"
       height="30"
       style="fill:#8d5fd3;fill-opacity:1;stroke:none;stroke-opacity:1" /><rect
       x="54"
       y="0"
       id="barcode1_bar43"
       width="2"
       height="30"
       style="fill:#8d5fd3;fill-opacity:1;stroke:none;stroke-opacity:1" /><rect
       x="58"
       y="0"
       id="barcode1_bar45"
       width="1"
       height="30"
       style="fill:#8d5fd3;fill-opacity:1;stroke:none;stroke-opacity:1" /><rect
       x="60"
       y="0"
       id="barcode1_bar47"
       width="2"
       height="30"
       style="fill:#8d5fd3;fill-opacity:1;stroke:none;stroke-opacity:1" /><rect
       x="63"
       y="0"
       id="barcode1_bar49"
       width="1"
       height="30"
       style="fill:#8d5fd3;fill-opacity:1;stroke:none;stroke-opacity:1" /><rect
       x="65"
       y="0"
       id="barcode1_bar51"
       width="1"
       height="30"
       style="fill:#8d5fd3;fill-opacity:1;stroke:none;stroke-opacity:1" /><rect
       x="68"
       y="0"
       id="barcode1_bar53"
       width="1"
       height="30"
       style="fill:#8d5fd3;fill-opacity:1;stroke:none;stroke-opacity:1" /><rect
       x="70"
       y="0"
       id="barcode1_bar55"
       width="2"
       height="30"
       style="fill:#8d5fd3;fill-opacity:1;stroke:none;stroke-opacity:1" /><rect
       x="73"
       y="0"
       id="barcode1_bar57"
       width="2"
       height="30"
       style="fill:#8d5fd3;fill-opacity:1;stroke:none;stroke-opacity:1" /><rect
       x="76"
       y="0"
       id="barcode1_bar59"
       width="1"
       height="30"
       style="fill:#8d5fd3;fill-opacity:1;stroke:none;stroke-opacity:1" /><path
       d="M 5.6975326,38.564381 H 4.972287 L 3.8610236,34.828976 Q 3.6153759,33.994554 3.572485,33.702116 3.5100983,34.15052 3.2995431,34.852371 l -1.0761708,3.71201 H 1.4981267 L -0.01085206,32.863794 H 0.73778855 L 1.6229001,36.345753 Q 1.8022619,37.028108 1.895842,37.702664 1.981624,37.0632 2.1999772,36.302862 l 1.0059859,-3.439068 h 0.7408422 l 1.0488767,3.466362 q 0.2027569,0.674557 0.3119336,1.372508 0.062387,-0.538085 0.2768411,-1.364709 l 0.8812124,-3.474161 h 0.7486406 z m 7.4279184,0 h -0.725246 l -1.111263,-3.735405 q -0.245648,-0.834422 -0.288539,-1.12686 -0.06239,0.448404 -0.272941,1.150255 l -1.0761713,3.71201 H 8.9260451 L 7.4170664,32.863794 H 8.165707 l 0.8851115,3.481959 q 0.1793619,0.682355 0.2729419,1.356911 0.085782,-0.639464 0.3041353,-1.399802 l 1.0059863,-3.439068 h 0.740842 l 1.048876,3.466362 q 0.202757,0.674557 0.311934,1.372508 0.06239,-0.538085 0.276841,-1.364709 l 0.881212,-3.474161 h 0.748641 z m 7.427918,0 H 19.828124 L 18.71686,34.828976 q -0.245647,-0.834422 -0.288538,-1.12686 -0.06239,0.448404 -0.272942,1.150255 l -1.076171,3.71201 h -0.725245 l -1.508979,-5.700587 h 0.74864 l 0.885112,3.481959 q 0.179362,0.682355 0.272942,1.356911 0.08578,-0.639464 0.304135,-1.399802 L 18.0618,32.863794 h 0.740842 l 1.048877,3.466362 q 0.202757,0.674557 0.311933,1.372508 0.06239,-0.538085 0.276842,-1.364709 l 0.881212,-3.474161 h 0.748641 z m 2.195234,-0.432808 q 0,-0.148169 0.03899,-0.249547 0.03899,-0.105278 0.105277,-0.167664 0.06629,-0.06629 0.155967,-0.09358 0.08968,-0.03119 0.194958,-0.03119 0.101379,0 0.19106,0.03119 0.09358,0.02729 0.159866,0.09358 0.06629,0.06239 0.105277,0.167664 0.03899,0.101378 0.03899,0.249547 0,0.144269 -0.03899,0.249547 -0.03899,0.101378 -0.105277,0.167664 -0.06629,0.06629 -0.159866,0.09748 -0.08968,0.03119 -0.19106,0.03119 -0.105277,0 -0.194958,-0.03119 -0.08968,-0.03119 -0.155967,-0.09748 -0.06629,-0.06629 -0.105277,-0.167664 -0.03899,-0.105278 -0.03899,-0.249547 z m 5.529023,0.432808 h -3.185622 v -5.700587 h 3.185622 v 0.631666 h -2.468175 v 1.778021 h 2.323905 v 0.623867 h -2.323905 v 2.035367 h 2.468175 z m 0.869514,-2.043165 v -0.655061 h 1.933989 v 0.655061 z m 1.376407,-2.924378 z m 6.242571,4.967543 h -0.838322 l -3.05305,-4.733593 h -0.03119 l 0.0195,0.315833 q 0.04679,0.709649 0.04679,1.232138 v 3.185622 H 32.24698 v -5.700587 h 0.830523 l 0.175463,0.276841 1.871601,2.893184 0.994288,1.547971 h 0.03119 q -0.0078,-0.09358 -0.03119,-0.666758 -0.0234,-0.577077 -0.0234,-0.834423 v -3.216815 h 0.670658 z m 5.123509,0 -0.686254,-1.766324 h -2.261519 l -0.678455,1.766324 h -0.725246 l 2.226426,-5.723982 h 0.647262 l 2.222527,5.723982 z M 40.988918,36.162492 40.349455,34.43516 40.076513,33.581242 q -0.116975,0.4679 -0.245648,0.853918 l -0.647262,1.727332 z m 6.301057,2.401889 h -0.814926 l -1.508979,-2.475973 -1.532374,2.475973 h -0.760338 l 1.894997,-2.971168 -1.774123,-2.729419 h 0.79933 l 1.395903,2.234225 1.4076,-2.234225 h 0.756439 l -1.762425,2.713823 z m 5.704486,-2.858092 q 0,1.368609 -0.694052,2.152342 -0.690153,0.783733 -1.933989,0.783733 -1.259431,0 -1.949584,-0.768136 -0.686254,-0.772036 -0.686254,-2.175737 0,-1.392004 0.682354,-2.156241 0.686254,-0.768137 1.961283,-0.768137 1.239936,0 1.930089,0.779834 0.690153,0.775935 0.690153,2.152342 z m -4.50744,0 q 0,1.130759 0.479597,1.723433 0.479598,0.592674 1.399802,0.592674 0.916305,0 1.392004,-0.584875 0.475699,-0.584876 0.475699,-1.731232 0,-1.142457 -0.4718,-1.719534 -0.471799,-0.580976 -1.388104,-0.580976 -0.928003,0 -1.407601,0.588775 -0.479597,0.584875 -0.479597,1.711735 z m 8.999287,1.333516 q 0,0.744742 -0.538086,1.17365 -0.538085,0.428909 -1.497281,0.428909 -1.013784,0 -1.567466,-0.269043 v -0.686254 q 0.362622,0.155967 0.791531,0.245648 0.432808,0.08968 0.807128,0.08968 0.639464,0 0.963095,-0.245648 0.323631,-0.245647 0.323631,-0.674556 0,-0.284639 -0.116975,-0.4679 -0.116975,-0.183261 -0.393816,-0.343127 -0.272942,-0.159866 -0.830523,-0.362623 -0.791532,-0.288539 -1.130759,-0.678456 -0.339228,-0.393816 -0.339228,-1.013784 0,-0.666758 0.499094,-1.060574 0.502993,-0.393816 1.321818,-0.393816 0.853918,0 1.571366,0.319732 l -0.222253,0.616069 q -0.733044,-0.304136 -1.36471,-0.304136 -0.506892,0 -0.79543,0.218354 -0.28464,0.218353 -0.28464,0.612169 0,0.280741 0.109177,0.467901 0.113076,0.183261 0.358724,0.335328 0.249547,0.152068 0.779834,0.347027 0.635564,0.23395 0.947498,0.456202 0.311934,0.218354 0.460102,0.506893 0.148169,0.284639 0.148169,0.682354 z m 0.947495,1.091768 q 0,-0.148169 0.03899,-0.249547 0.03899,-0.105278 0.105278,-0.167664 0.06629,-0.06629 0.155967,-0.09358 0.08968,-0.03119 0.194958,-0.03119 0.101379,0 0.19106,0.03119 0.09358,0.02729 0.159866,0.09358 0.06629,0.06239 0.105277,0.167664 0.03899,0.101378 0.03899,0.249547 0,0.144269 -0.03899,0.249547 -0.03899,0.101378 -0.105277,0.167664 -0.06629,0.06629 -0.159866,0.09748 -0.08968,0.03119 -0.19106,0.03119 -0.105277,0 -0.194958,-0.03119 -0.08968,-0.03119 -0.155967,-0.09748 -0.06629,-0.06629 -0.105278,-0.167664 -0.03899,-0.105278 -0.03899,-0.249547 z m 4.784285,-4.717996 q -0.920204,0 -1.446592,0.616069 -0.526388,0.616069 -0.526388,1.684441 0,1.103466 0.510791,1.703938 0.510791,0.596573 1.45439,0.596573 0.608271,0 1.368609,-0.226152 v 0.623867 q -0.362623,0.132572 -0.697951,0.179362 -0.335329,0.05069 -0.772036,0.05069 -1.259432,0 -1.941787,-0.764237 -0.678455,-0.768137 -0.678455,-2.171838 0,-0.881212 0.323631,-1.544071 0.32753,-0.662859 0.947498,-1.021583 0.623867,-0.358723 1.466088,-0.358723 0.904607,0 1.575265,0.335328 l -0.288539,0.608271 q -0.682355,-0.311934 -1.294524,-0.311935 z m 7.501997,2.292712 q 0,1.368609 -0.694052,2.152342 -0.690153,0.783733 -1.933988,0.783733 -1.259432,0 -1.949585,-0.768136 -0.686254,-0.772036 -0.686254,-2.175737 0,-1.392004 0.682354,-2.156241 0.686254,-0.768137 1.961283,-0.768137 1.239936,0 1.930089,0.779834 0.690153,0.775935 0.690153,2.152342 z m -4.50744,0 q 0,1.130759 0.479598,1.723433 0.479597,0.592674 1.399802,0.592674 0.916304,0 1.392003,-0.584875 0.475699,-0.584876 0.475699,-1.731232 0,-1.142457 -0.4718,-1.719534 -0.471799,-0.580976 -1.388104,-0.580976 -0.928003,0 -1.4076,0.588775 -0.479598,0.584875 -0.479598,1.711735 z m 8.281843,2.858092 -1.8794,-4.998736 h -0.03119 q 0.05849,0.623867 0.05849,1.540172 v 3.458564 h -0.662859 v -5.700587 h 1.060574 l 1.75852,4.671206 h 0.03119 l 1.789719,-4.671206 h 1.052776 v 5.700587 h -0.709649 v -3.505354 q 0,-0.584876 0.05459,-1.485584 h -0.03119 l -1.902795,4.990938 z"
       id="barcode1_text"
       style="font-size:7.9855px;text-align:center;text-anchor:middle;fill:#8d5fd3;fill-opacity:1;stroke:none;stroke-width:0.887278;stroke-opacity:1"
       aria-label="WWW.E-NAXOS.COM" /></g></g><path
   style="font-size:96px;font-family:Nasalization;-inkscape-font-specification:Nasalization;fill:#ff7f2a;stroke-width:11.5732"
   d="M 66.905715,65.402385 H 33.51839 q -7.481874,0 -11.893152,-5.192337 -3.978801,-4.705556 -3.978801,-11.479928 0,-2.96126 0.821709,-5.679119 0.864957,-2.758429 2.551622,-5.030077 -1.60017,-2.149956 -2.508374,-4.989515 -0.864957,-2.83956 -0.864957,-5.679119 0,-6.774373 3.978801,-11.479929 4.411278,-5.232906 11.893152,-5.232906 H 66.905715 V 22.241083 H 35.680782 q -2.119144,0 -3.373331,1.500914 -1.210939,1.500906 -1.210939,3.529163 0,1.987696 1.167691,3.407471 1.21094,1.419784 3.416579,1.419784 h 31.224933 v 11.561059 0.324521 H 33.907621 q -1.340683,0.567911 -2.075896,1.865996 -0.735213,1.257523 -0.735213,2.839559 0,1.987696 1.167691,3.407471 1.21094,1.419784 3.416579,1.419784 H 66.905715 Z M 121.74396,43.983995 H 72.268446 v -11.88558 h 49.475514 z m 0,21.70235 z m -49.475514,0 z M 186.26972,54.61206 q 0,5.273467 -4.58427,8.680938 -4.32478,3.20465 -10.33622,3.20465 -5.233,0 -9.34153,-2.555608 -4.62753,-2.88012 -6.53043,-8.275287 -0.38923,-1.054693 -3.50307,-11.723319 -2.89761,-9.979023 -4.93025,-15.130799 -2.89761,-7.423415 -4.75727,-7.180025 -1.25419,0.283952 -1.72991,0.932994 -0.43248,0.649042 -0.43248,1.825435 v 41.295306 h -13.0176 V 21.55148 q 0,-6.044209 4.84376,-9.20829 4.19504,-2.7178592 10.72546,-2.7178592 8.69282,0 13.88256,8.2752872 3.45983,5.476289 6.57367,17.767529 3.45983,13.467624 5.05999,16.793965 0.43248,0.851863 1.1677,1.298084 0.7352,0.446212 1.51367,0.446212 0.95145,0 1.64341,-0.689603 0.69197,-0.730172 0.69197,-1.987696 V 10.233803 h 13.06084 z m 63.31483,11.074285 H 235.702 L 220.39227,23.336346 q -0.12975,-0.649042 -0.99471,-0.649042 -0.9082,0 -1.21094,0.649042 l -15.00699,42.349999 h -14.05555 q 1.64342,-5.192337 5.1465,-15.61758 3.93554,-11.561059 7.69811,-22.067433 4.15179,-11.479929 5.10324,-12.859143 1.77316,-2.312217 5.06,-3.529171 3.33008,-1.216954 7.22239,-1.216954 3.84905,0 7.17914,1.216954 3.33008,1.216954 5.01675,3.529171 1.08119,1.338645 5.18973,12.818582 2.8976,8.072457 7.61162,22.067433 2.59487,7.829066 5.23299,15.658141 z m 60.24423,0.04059 H 294.60554 L 280.80948,45.525496 q -0.34598,-0.689603 -1.25418,-0.689603 -0.86496,0 -0.99471,0.689603 l -14.09879,20.20141 h -15.09349 q 2.33538,-3.529162 4.71401,-7.058333 5.57897,-8.315848 8.69282,-13.183664 2.11914,-3.529171 4.23829,-7.098903 l -17.64512,-27.3409 h 15.09349 l 14.09879,20.242006 q 0.12975,0.689603 0.99471,0.689603 0.9082,0 1.25418,-0.689603 l 13.79606,-20.242006 h 15.22324 l -17.25589,27.3409 z m 41.34492,-0.04059 h -19.15879 q -10.33623,0 -16.30443,-8.437547 -5.36273,-7.545115 -5.36273,-18.619401 0,-11.317668 5.44923,-19.227873 6.05469,-8.762069 16.21793,-8.762069 h 19.15879 q 10.16324,0 16.21793,8.762069 5.44923,7.910205 5.44923,19.227873 0,11.114847 -5.31948,18.619401 -5.9682,8.437547 -16.34768,8.437547 z m -2.16239,-11.926149 q 4.62751,0 7.43863,-5.070646 2.55161,-4.583856 2.55161,-11.074277 0,-6.2876 -2.46512,-10.587504 -2.72462,-4.786686 -7.52512,-4.786686 H 334.1773 q -4.75726,0 -7.48187,4.786686 -2.46513,4.299904 -2.46513,10.587504 0,6.490421 2.50837,11.074277 2.76786,5.070646 7.43863,5.070646 z m 77.02438,-31.519113 h -31.22493 q -2.11914,0 -3.37333,1.500914 -1.21094,1.500906 -1.21094,3.529163 0,1.987696 1.16769,3.407471 1.21094,1.419784 3.41658,1.419784 h 18.38033 q 7.43863,0 11.76341,5.232898 3.93555,4.746125 3.93555,11.561067 0,6.855503 -3.89231,11.561059 -4.32478,5.232906 -11.80665,5.232906 H 379.71727 V 54.003587 h 31.35467 q 1.9894,0 3.24359,-1.622605 1.12445,-1.460345 1.12445,-3.529171 0,-1.987688 -1.12445,-3.407472 -1.12444,-1.460344 -3.24359,-1.460344 h -18.42357 q -7.48187,0 -11.84991,-5.192337 -3.9788,-4.705556 -3.9788,-11.479929 0,-6.774382 3.93556,-11.439368 4.41128,-5.232906 11.89315,-5.232906 h 33.38732 z"
   id="text1"
   aria-label="E-NAXOS" /></svg>
